# Blender v2.79 (sub 0) OBJ File: 'rutter.blend'
# www.blender.org
mtllib rutter.mtl
o Cube_Cube.001
v 9.174006 2.410930 4.700267
v 9.161095 8.280951 4.742257
v 9.174006 3.039953 2.280567
v 9.277485 8.473740 3.674911
v 9.316903 2.410930 4.700267
v 9.295940 8.280951 4.742257
v 9.218135 3.039953 2.280567
v 9.321613 8.473740 3.674911
v 9.174006 2.410930 3.736508
v 9.217180 8.373852 4.227925
v 9.269309 2.410930 3.736508
v 9.308311 8.373852 4.227925
v 9.218135 3.039953 2.280567
vn -0.9996 0.0168 -0.0239
vn 0.0000 0.2486 -0.9686
vn 0.9997 -0.0004 -0.0239
vn 0.0000 -0.0072 1.0000
vn 0.0000 -1.0000 0.0000
vn 0.0000 0.9841 0.1777
vn 0.0000 0.9841 0.1778
vn 0.0000 -0.9180 -0.3966
vn 0.9997 -0.0088 -0.0221
vn -0.9993 0.0043 -0.0377
usemtl Material.002
s off
f 9//1 10//1 4//1 3//1
f 3//2 4//2 8//2 13//2
f 11//3 12//3 6//3 5//3
f 5//4 6//4 2//4 1//4
f 9//5 11//5 5//5 1//5
f 12//6 10//6 2//6 6//6
f 8//7 4//7 10//7 12//7
f 3//8 13//8 11//8 9//8
f 7//9 8//9 12//9 11//9
f 1//10 2//10 10//10 9//10
